Coordinates
version=1
nRows=28
nColumns=33
inDegrees=yes

Units are S.I. units (second, meters, Newtons, ...)
Angles are in degrees.

endheader
time	ground_thorax_rot_x	ground_thorax_rot_y	ground_thorax_rot_z	ground_thorax_tx	ground_thorax_ty	ground_thorax_tz	clav_prot_r	clav_elev_r	scapula_abduction_r	scapula_elevation_r	scapula_upward_rot_r	scapula_winging_r	shoulder_elv_r	plane_of_elev_r	axial_rot_r	elbow_flexion_r	pro_sup_r	wrist_flex_r	wrist_dev_r	clav_prot_l	clav_elev_l	scapula_abduction_l	scapula_elevation_l	scapula_upward_rot_l	scapula_winging_l	shoulder_elv_l	plane_of_elev_l	axial_rot_l	elbow_flexion_l	pro_sup_l	wrist_flex_l	wrist_dev_l	
6.5100	30.395323	25.779751	34.309486	-74.022353	813.023519	-42.748875	12.658815	34.496243	25.342647	45.000000	-45.000000	-1886.349460	-1548.226567	159.005138	18.443319	-0.308533	156.331807	11.567563	15.128311	-8.261871	-45.000000	-39.341926	45.000000	-45.000000	-3136.785978	90.621844	17.516393	-179.990183	730.745225	202.144371	12.392157	-14.593290	
6.5200	30.423377	25.554977	34.151438	-76.395568	814.763416	-42.954341	12.642109	34.466375	25.289143	45.000000	-45.000000	-1886.492343	-1548.189577	159.015123	18.584671	-0.368049	155.769021	11.536045	15.159765	-8.163283	-45.000000	-39.436074	45.000000	-45.000000	-3136.667253	90.726878	17.575970	-179.982422	730.679152	201.769604	12.443923	-14.712558	
6.5300	30.455864	25.335859	33.995851	-78.701534	816.510025	-43.168655	12.622053	34.445022	25.238349	45.000000	-45.000000	-1886.631806	-1548.155989	159.024411	18.715963	-0.428046	155.221829	11.510387	15.187700	-8.069883	-45.000000	-39.523514	45.000000	-45.000000	-3136.553356	90.854853	17.648752	-179.968495	730.605591	201.418965	12.491188	-14.839451	
6.5400	30.492094	25.124569	33.843455	-80.936982	818.258261	-43.389538	12.602651	34.423805	25.189406	45.000000	-45.000000	-1886.767565	-1548.125651	159.034002	18.841407	-0.489997	154.690100	11.490003	15.213441	-7.978348	-45.000000	-39.610118	45.000000	-45.000000	-3136.441575	91.019124	17.747938	-179.943617	730.526970	201.114364	12.534248	-14.972559	
6.5500	30.532727	24.921881	33.694963	-83.098622	820.003141	-43.613259	12.578549	34.408044	25.144911	45.000000	-45.000000	-1886.903009	-1548.100480	159.042274	18.958070	-0.554450	154.174888	11.475796	15.237690	-7.890454	-45.000000	-39.692009	45.000000	-45.000000	-3136.332654	91.254314	17.894117	-179.898861	730.437497	200.894243	12.571090	-15.113350	
6.5600	30.576724	24.729751	33.551991	-85.183215	821.740311	-43.833889	12.555606	34.387485	25.101737	45.000000	-45.000000	-1887.036742	-1548.078753	159.049117	19.073164	-0.622612	153.674879	11.466480	15.261432	-7.801587	-45.000000	-39.775466	45.000000	-45.000000	-3136.222779	91.610066	18.126273	-179.819225	730.338798	200.817758	12.602177	-15.260050	
6.5700	30.624759	24.549858	33.417182	-87.187190	823.468089	-44.041257	12.530786	34.366870	25.063406	45.000000	-45.000000	-1887.174005	-1548.063542	159.053488	19.186015	-0.695326	153.189809	11.463149	15.285210	-7.715885	-45.000000	-39.856588	45.000000	-45.000000	-3136.110391	92.195536	18.514961	-179.675081	730.215776	201.002632	12.625964	-15.416246	
6.5800	30.676670	24.386335	33.295531	-89.106894	825.187570	-44.220060	12.507101	34.340128	25.026888	45.000000	-45.000000	-1887.312250	-1548.051502	159.058468	19.302738	-0.772695	152.720332	11.465044	15.308905	-7.631348	-45.000000	-39.934655	45.000000	-45.000000	-3135.991997	93.173860	19.172466	-179.421045	730.055029	201.627648	12.641912	-15.582012	
6.5900	30.736197	24.241439	33.193782	-90.936742	826.911954	-44.340858	12.478042	34.319672	24.998490	45.000000	-45.000000	-1887.458546	-1548.044318	159.063717	19.421779	-0.852900	152.271683	11.474703	15.331726	-7.557544	-45.000000	-39.997371	45.000000	-45.000000	-3135.867039	94.927476	20.346122	-178.954360	729.806926	203.111784	12.649943	-15.764983	
6.6000	30.806036	24.120516	33.120218	-92.671114	828.657878	-44.367160	12.447717	34.298294	24.976120	45.000000	-45.000000	-1887.612914	-1548.036673	159.073970	19.555389	-0.938304	151.849454	11.493216	15.353703	-7.494125	-45.000000	-40.043675	45.000000	-45.000000	-3135.729002	97.907089	22.341410	-178.150863	729.423163	205.957932	12.652218	-15.970576	
6.6100	30.894301	24.033804	33.103764	-94.294824	830.497213	-44.198698	12.416436	34.277231	24.962873	45.000000	-45.000000	-1887.791269	-1548.023123	159.086054	19.720256	-1.027236	151.462349	11.522121	15.374814	-7.455564	-45.000000	-40.050521	45.000000	-45.000000	-3135.567986	103.557815	26.105100	-176.620939	728.723281	211.779372	12.660272	-16.215263	
6.6200	31.003992	23.990347	33.164686	-95.798867	832.467506	-43.772956	12.387946	34.252049	24.956298	45.000000	-45.000000	-1888.000712	-1547.996676	159.100286	19.929085	-1.118840	151.118949	11.561014	15.394877	-7.446833	-45.000000	-40.006184	45.000000	-45.000000	-3135.377162	112.727333	32.195793	-174.133376	727.608715	221.518131	12.680450	-16.508559	
6.6300	31.187227	24.022467	33.401441	-97.115048	834.925153	-42.686394	12.362418	34.227792	24.979023	45.000000	-45.000000	-1888.314187	-1547.942006	159.106646	20.257471	-1.208475	150.839742	11.621316	15.407722	-7.507350	-45.000000	-39.846106	45.000000	-45.000000	-3135.124881	131.781873	44.792524	-168.971321	725.255636	242.378271	12.792264	-16.923533	
6.6400	31.437321	24.105881	33.766023	-98.255482	837.753296	-41.093998	12.348527	34.215486	25.033736	45.000000	-45.000000	-1888.704140	-1547.869106	159.106915	20.661334	-1.294316	150.632630	11.693624	15.414852	-7.635794	-45.000000	-39.592843	45.000000	-45.000000	-3134.830905	158.611354	62.494386	-161.695560	721.917277	272.041603	12.981656	-17.448849	
6.6500	31.745113	24.222815	34.217137	-99.229340	840.848815	-39.142997	12.341512	34.211421	25.114249	45.000000	-45.000000	-1889.145827	-1547.784752	159.097213	21.106806	-1.372898	150.500160	11.782073	15.418164	-7.809246	-45.000000	-39.275440	45.000000	-45.000000	-3134.512522	191.294805	84.027005	-152.825339	717.829226	308.421031	13.248977	-18.051901	
6.6600	32.048136	24.316999	34.606790	-100.116411	843.722394	-37.406929	12.341693	34.218751	25.193109	45.000000	-45.000000	-1889.542136	-1547.712684	159.079238	21.472965	-1.449790	150.427784	11.875398	15.422045	-7.975599	-45.000000	-38.986184	45.000000	-45.000000	-3134.224904	221.166555	103.681648	-144.700390	714.090980	341.789937	13.504016	-18.637090	
6.6700	32.332825	24.392673	34.926567	-100.923757	846.315993	-35.955836	12.336988	34.222671	25.262952	45.000000	-45.000000	-1889.882402	-1547.656314	159.059650	21.751484	-1.522252	150.405694	11.987765	15.424192	-8.107293	-45.000000	-38.748275	45.000000	-45.000000	-3133.975326	247.259117	120.835133	-137.593775	710.826452	371.084767	13.749859	-19.166815	
6.6800	32.544026	24.411101	35.074868	-101.720553	848.245506	-35.209884	12.330778	34.229015	25.297700	45.000000	-45.000000	-1890.093275	-1547.630973	159.039212	21.858380	-1.597636	150.415492	12.101366	15.424532	-8.173433	-45.000000	-38.621182	45.000000	-45.000000	-3133.800516	263.035845	131.186328	-133.277873	708.865985	388.908338	13.899044	-19.579162	
6.6900	32.676870	24.402886	35.103537	-102.500261	849.584431	-35.049046	12.311888	34.214458	25.296043	45.000000	-45.000000	-1890.194639	-1547.630512	159.029430	21.832822	-1.667362	150.446629	12.232141	15.424076	-8.166311	-45.000000	-38.590538	45.000000	-45.000000	-3133.684832	270.207741	135.884006	-131.301709	708.011743	397.140719	13.972511	-19.857225	
6.7000	32.733361	24.376903	35.038045	-103.269104	850.372389	-35.385252	12.287115	34.193186	25.247859	45.000000	-45.000000	-1890.201756	-1547.643539	159.017519	21.702571	-1.739076	150.495993	12.362154	15.413056	-8.107119	-45.000000	-38.624508	45.000000	-45.000000	-3133.615235	270.211620	135.866259	-131.291117	708.072575	397.319913	13.957212	-20.037900	
6.7100	32.758577	24.388088	34.999336	-103.977109	850.973069	-35.777501	12.249859	34.151668	25.191495	45.000000	-45.000000	-1890.198185	-1547.660229	159.018221	21.566663	-1.796537	150.566402	12.517346	15.395963	-8.035685	-45.000000	-38.656689	45.000000	-45.000000	-3133.547340	270.208795	135.864304	-131.315195	708.141725	397.489798	13.942943	-20.169676	
6.7200	32.739560	24.429297	34.974476	-104.651514	851.299991	-36.324178	12.216140	34.112883	25.114048	45.000000	-45.000000	-1890.173201	-1547.670266	159.019259	21.426309	-1.850842	150.661917	12.662283	15.366033	-7.960120	-45.000000	-38.676872	45.000000	-45.000000	-3133.474323	270.214798	135.858006	-131.369821	708.201901	397.627056	13.907040	-20.292175	
6.7300	32.670817	24.505541	34.956596	-105.302119	851.309271	-37.084180	12.178463	34.061636	25.024038	45.000000	-45.000000	-1890.131595	-1547.678663	159.028247	21.292946	-1.892442	150.770899	12.823711	15.335991	-7.869113	-45.000000	-38.694521	45.000000	-45.000000	-3133.395625	270.225197	135.845594	-131.443553	708.274619	397.722121	13.869720	-20.378467	
6.7400	32.475247	24.627400	34.947127	-105.984740	850.679732	-38.485361	12.149588	33.999750	24.887672	45.000000	-45.000000	-1890.045020	-1547.656590	159.038349	21.175416	-1.933052	150.888632	12.963876	15.301690	-7.722864	-45.000000	-38.721585	45.000000	-45.000000	-3133.288997	270.286709	135.780850	-131.507311	708.375933	397.734276	13.809223	-20.459658	
6.7500	32.177747	24.790591	34.958576	-106.656527	849.546457	-40.384401	12.115096	33.927123	24.734748	45.000000	-45.000000	-1889.935037	-1547.618628	159.064609	21.100187	-1.963858	150.994338	13.112106	15.261873	-7.538299	-45.000000	-38.766340	45.000000	-45.000000	-3133.178272	270.382001	135.697784	-131.556501	708.521853	397.676675	13.740876	-20.534323	
6.7600	31.800176	24.975384	34.998273	-107.282385	848.029368	-42.650476	12.083768	33.859471	24.565590	45.000000	-45.000000	-1889.802665	-1547.560001	159.097616	21.067990	-1.996716	151.084070	13.231525	15.210564	-7.323588	-45.000000	-38.824275	45.000000	-45.000000	-3133.064141	270.512604	135.591084	-131.585192	708.694231	397.566161	13.651610	-20.635935	
6.7700	31.456084	25.139426	35.057081	-107.766964	846.602343	-44.700864	12.053894	33.790114	24.425718	45.000000	-45.000000	-1889.685304	-1547.512950	159.129972	21.065122	-2.025876	151.146690	13.352178	15.160971	-7.130037	-45.000000	-38.870570	45.000000	-45.000000	-3132.957733	270.626779	135.482613	-131.619490	708.865152	397.474765	13.557349	-20.761962	
6.7800	31.154187	25.274343	35.134865	-108.115499	845.320534	-46.472030	12.038021	33.720032	24.312528	45.000000	-45.000000	-1889.575379	-1547.474937	159.158143	21.059305	-2.052732	151.190534	13.444185	15.118728	-6.961325	-45.000000	-38.901671	45.000000	-45.000000	-3132.847034	270.729572	135.362433	-131.653372	709.018639	397.426686	13.448920	-20.909972	
